<svg xmlns="http://www.w3.org/2000/svg" width="800" height="800" preserveAspectRatio="xMidYMid meet" version="1.0" viewBox="0 0 600 600"><metadata>Created by potrace 1.11, written by Peter Selinger 2001-2013</metadata><g fill="#000" stroke="none"><path d="M515 5985 c-84 -18 -140 -42 -215 -90 -142 -92 -237 -224 -280 -389 -18 -68 -19 -162 -19 -2496 0 -1635 3 -2443 10 -2480 43 -228 214 -420 444 -501 l70 -24 2443 -3 c2719 -2 2516 -8 2667 67 137 68 227 158 296 296 72 146 67 -51 67 2635 0 2018 -2 2436 -13 2488 -29 131 -118 277 -225 366 -62 51 -191 114 -270 130 -94 21 -4883 21 -4975 1z" transform="translate(0.000000,600.000000) scale(0.100000,-0.100000)"/></g></svg>